# xmcd
# Copyright (C) 1995-1998 Ti Kan
#
# Track frame offsets:
#       150
#       25193
#       40888
#       62593
#       75408
#       97793
#       121438
#       136028
#       154238
#       173798
#
# Disc length: 2563 seconds
#
# Revision: 0
# Processed by: cddbd v1.5.2PL0 Copyright (c) Steve Scherf et al.
# Submitted via: CD-Import v1.0
#
DISCID=6f0a010a
DTITLE=Pj Harvey - To Bring You My Love
DYEAR=1995
DGENRE=
TTITLE0=To Bring You My Love
TTITLE1=Meet Ze Monsta
TTITLE2=Working For The Man
TTITLE3=C'mon Billy
TTITLE4=Teclo
TTITLE5=Long Snake Moan
TTITLE6=Down By The Water
TTITLE7=I Think I'm A Mother
TTITLE8=Send His Love To Me
TTITLE9=The Dancer
EXTD=
EXTT0=
EXTT1=
EXTT2=
EXTT3=
EXTT4=
EXTT5=
EXTT6=
EXTT7=
EXTT8=
EXTT9=
PLAYORDER=
